<svg width="512" height="512" viewBox="0 0 512 512" fill="none" xmlns="http://www.w3.org/2000/svg">
  <rect width="512" height="512" rx="128" fill="#5C4033"/>
  
  <!-- Bread Loaf (Toast) -->
  <path d="M160 200C160 160 200 140 256 140C312 140 352 160 352 200V400C352 420 332 440 312 440H200C180 440 160 420 160 400V200Z" fill="#F4D03F"/>
  <path d="M160 200C160 160 200 140 256 140C312 140 352 160 352 200V230H160V200Z" fill="#D4AC0D"/>
  
  <!-- Whisk (Diagonal) -->
  <g transform="translate(380, 380) rotate(-30) translate(-380, -380)">
    <rect x="370" y="380" width="20" height="80" rx="10" fill="#F8F5F2"/>
    <path d="M380 280 C340 280, 320 330, 380 380 C440 330, 420 280, 380 280" stroke="#F8F5F2" stroke-width="10" fill="none" stroke-linecap="round"/>
    <line x1="380" y1="280" x2="380" y2="380" stroke="#F8F5F2" stroke-width="10" stroke-linecap="round"/>
  </g>
</svg>
